<svg width="20" height="20" viewBox="0 0 20 20" fill="none" xmlns="http://www.w3.org/2000/svg">
<path d="M0 8.32105C0 12.9115 3.73464 16.6421 8.32105 16.6421C10.4341 16.6421 12.3669 15.8477 13.837 14.5455L19.14 19.8485C19.2383 19.9468 19.3653 19.9959 19.4963 19.9959C19.6274 19.9959 19.7543 19.9468 19.8526 19.8485C20.0491 19.6519 20.0491 19.3366 19.8526 19.1401L14.5455 13.837C15.8477 12.3669 16.6421 10.4382 16.6421 8.32105C16.6421 3.73055 12.9075 0 8.32105 0C3.73464 0 0 3.73055 0 8.32105ZM15.6388 8.32105C15.6388 12.3546 12.3546 15.6388 8.32105 15.6388C4.28747 15.6388 1.00328 12.3546 1.00328 8.32105C1.00328 4.28747 4.28747 1.00328 8.32105 1.00328C12.3546 1.00328 15.6388 4.28337 15.6388 8.32105Z" fill="#4F4F4F"/>
</svg>
